#tb 0: 1/22050
#media_type 0: audio
#codec_id 0: pcm_s16le
#sample_rate 0: 22050
#channel_layout 0: 4
#channel_layout_name 0: mono
0,          0,          0,    88224,   176448, 0x541ddc55
0,      88224,      88224,     1838,     3676, 0xaf455081
0,      90062,      90062,     1838,     3676, 0x27ef4e91
0,      91900,      91900,     1838,     3676, 0xd1d986a3
0,      93738,      93738,     1838,     3676, 0xaaa2b589
0,      95576,      95576,     1838,     3676, 0x6e794ff9
0,      97414,      97414,     1838,     3676, 0x266351f1
0,      99252,      99252,     1838,     3676, 0xdeae50b2
0,     101090,     101090,     1838,     3676, 0x90f1f96a
0,     102928,     102928,     1838,     3676, 0xea07adf9
0,     104766,     104766,     1838,     3676, 0xb80a8925
0,     106604,     106604,     1838,     3676, 0xc392a1da
0,     108442,     108442,     1838,     3676, 0xa076bdda
0,     110280,     110280,     1838,     3676, 0x8f40b4cc
0,     112118,     112118,     1838,     3676, 0x4227fe30
0,     113956,     113956,     1838,     3676, 0x82b31ec8
0,     115794,     115794,     1838,     3676, 0x3ba04042
0,     117632,     117632,     1838,     3676, 0x6fe7440a
0,     119470,     119470,     1838,     3676, 0x23e33177
0,     121308,     121308,     1838,     3676, 0x1f14242c
0,     123146,     123146,     1838,     3676, 0x72931fb0
0,     124984,     124984,     1838,     3676, 0x2b1351c2
0,     126822,     126822,     1838,     3676, 0x6aee7070
0,     128660,     128660,     1838,     3676, 0x237658fa
0,     130498,     130498,     1838,     3676, 0xac001143
0,     132336,     132336,     1838,     3676, 0x1921ee21
0,     134174,     134174,     1838,     3676, 0x80186091
0,     136012,     136012,     1838,     3676, 0xb7f37ede
0,     137850,     137850,     1838,     3676, 0x355227ef
0,     139688,     139688,     1838,     3676, 0xb0411f35
0,     141526,     141526,     1838,     3676, 0xe7c4fe0e
0,     143364,     143364,     1838,     3676, 0x0425984d
0,     145202,     145202,     1838,     3676, 0xfd59dea1
0,     147040,     147040,     1838,     3676, 0xa53d5aab
0,     148878,     148878,     1838,     3676, 0x8bc403c2
0,     150716,     150716,     1838,     3676, 0x7dd638c2
0,     152554,     152554,     1838,     3676, 0x284913eb
0,     154392,     154392,     1838,     3676, 0xec17e83c
0,     156230,     156230,     1838,     3676, 0x40543463
0,     158068,     158068,     1838,     3676, 0x92d81bf8
0,     159906,     159906,     1838,     3676, 0x44ef161d
0,     161744,     161744,     1838,     3676, 0x499df3d5
0,     163582,     163582,     1838,     3676, 0xf98f4d75
0,     165420,     165420,     1838,     3676, 0x8ffe2681
0,     167258,     167258,     1838,     3676, 0x84093bfd
0,     169096,     169096,     1838,     3676, 0x5f9c2e32
0,     170934,     170934,     1838,     3676, 0x8f93c29b
0,     172772,     172772,     1838,     3676, 0xf0ada687
0,     174610,     174610,     1838,     3676, 0x30019db2
0,     176448,     176448,     1838,     3676, 0x06ebace3
0,     178286,     178286,     1838,     3676, 0xc293d944
0,     180124,     180124,     1838,     3676, 0x789ff65e
0,     181962,     181962,     1838,     3676, 0xa2ae13c1
0,     183800,     183800,     1838,     3676, 0xb64f1cd9
0,     185638,     185638,     1838,     3676, 0x18f4e36a
0,     187476,     187476,     1838,     3676, 0xe9ccd0f0
0,     189314,     189314,     1838,     3676, 0xc215b4ab
0,     191152,     191152,     1838,     3676, 0x45b5c410
0,     192990,     192990,     1838,     3676, 0xf84a9939
0,     194828,     194828,     1838,     3676, 0xc8aff71e
0,     196666,     196666,     1838,     3676, 0x76cc3afc
0,     198504,     198504,     1838,     3676, 0x524e1dd6
0,     200342,     200342,     1838,     3676, 0x115a3f10
0,     202180,     202180,     1838,     3676, 0xd2bb51d1
0,     204018,     204018,     1838,     3676, 0xe1dbfca5
0,     205856,     205856,     1838,     3676, 0xc428f070
0,     207694,     207694,     1838,     3676, 0x6aa4dddf
0,     209532,     209532,     1838,     3676, 0xa0428f08
0,     211370,     211370,     1838,     3676, 0x8fd7e256
0,     213208,     213208,     1838,     3676, 0x41cb1787
0,     215046,     215046,     1838,     3676, 0xe348568e
0,     216884,     216884,     1838,     3676, 0x79091a0c
0,     218722,     218722,     1838,     3676, 0x592f6f2e
0,     220560,     220560,     1838,     3676, 0xa151448f
0,     222398,     222398,     1838,     3676, 0xb3402e7a
0,     224236,     224236,     1838,     3676, 0x74112e27
0,     226074,     226074,     1838,     3676, 0xba090659
0,     227912,     227912,     1838,     3676, 0xa0451f81
0,     229750,     229750,     1838,     3676, 0x09c7393a
0,     231588,     231588,     1838,     3676, 0xceb4e340
0,     233426,     233426,     1838,     3676, 0x0440291a
0,     235264,     235264,     1838,     3676, 0xb7b930c4
0,     237102,     237102,     1838,     3676, 0x1a2afa4a
0,     238940,     238940,     1838,     3676, 0x414fee56
0,     240778,     240778,     1838,     3676, 0x5e26bc97
0,     242616,     242616,     1838,     3676, 0x780e0481
0,     244454,     244454,     1838,     3676, 0xb6dfb9c5
0,     246292,     246292,     1838,     3676, 0x447b36ca
0,     248130,     248130,     1838,     3676, 0x601c3067
0,     249968,     249968,     1838,     3676, 0x199f2f8d
0,     251806,     251806,     1838,     3676, 0x98645b08
